<svg xmlns="http://www.w3.org/2000/svg" xmlns:xlink="http://www.w3.org/1999/xlink" width="52.286" height="65.18" viewBox="0 0 52.286 65.18">
  <defs>
    <filter id="Trazado_1" x="16.087" y="0" width="36.199" height="65.18" filterUnits="userSpaceOnUse">
      <feOffset dx="3" dy="3" input="SourceAlpha"/>
      <feGaussianBlur stdDeviation="4" result="blur"/>
      <feFlood flood-opacity="0.8"/>
      <feComposite operator="in" in2="blur"/>
      <feComposite in="SourceGraphic"/>
    </filter>
    <linearGradient id="linear-gradient" x1="0.5" x2="0.5" y2="0.698" gradientUnits="objectBoundingBox">
      <stop offset="0" stop-color="#0245e8"/>
      <stop offset="1" stop-color="#003cce"/>
    </linearGradient>
    <filter id="Trazado_2" x="0" y="7.749" width="36.198" height="57.431" filterUnits="userSpaceOnUse">
      <feOffset dx="3" dy="3" input="SourceAlpha"/>
      <feGaussianBlur stdDeviation="4" result="blur-2"/>
      <feFlood flood-opacity="0.8"/>
      <feComposite operator="in" in2="blur-2"/>
      <feComposite in="SourceGraphic"/>
    </filter>
  </defs>
  <g id="Grupo_1481" data-name="Grupo 1481" transform="translate(9 50.18) rotate(-90)">
    <g transform="matrix(0, 1, -1, 0, 50.18, -9)" filter="url(#Trazado_1)">
      <path id="Trazado_1-2" data-name="Trazado 1" d="M7.065,12.2H41.18A47.182,47.182,0,0,0,36.99,0H0C0,6.738,3.163,12.2,7.065,12.2Z" transform="translate(25.09 50.18) rotate(-90)" fill="#00298d" fill-rule="evenodd"/>
    </g>
    <g transform="matrix(0, 1, -1, 0, 50.18, -9)" filter="url(#Trazado_2)">
      <path id="Trazado_2-2" data-name="Trazado 2" d="M0,12.2H33.431C29.923,4.714,24.829,0,19.156,0H0Z" transform="translate(9 50.18) rotate(-90)" fill-rule="evenodd" fill="url(#linear-gradient)"/>
    </g>
  </g>
</svg>
